<svg xmlns="http://www.w3.org/2000/svg" viewBox="0 0 400 400" fill="none">
  <rect width="400" height="400" fill="#F3F4F6"/>
  <path d="M200 150C172.386 150 150 172.386 150 200C150 227.614 172.386 250 200 250C227.614 250 250 227.614 250 200C250 172.386 227.614 150 200 150ZM200 230C183.431 230 170 216.569 170 200C170 183.431 183.431 170 200 170C216.569 170 230 183.431 230 200C230 216.569 216.569 230 200 230Z" fill="#9CA3AF"/>
  <path d="M250 120H150C133.431 120 120 133.431 120 150V250C120 266.569 133.431 280 150 280H250C266.569 280 280 266.569 280 250V150C280 133.431 266.569 120 250 120ZM260 250C260 255.523 255.523 260 250 260H150C144.477 260 140 255.523 140 250V150C140 144.477 144.477 140 150 140H250C255.523 140 260 144.477 260 150V250Z" fill="#9CA3AF"/>
  <path d="M250 150L150 250" stroke="#9CA3AF" stroke-width="20" stroke-linecap="round"/>
</svg>
